<?xml version="1.0" encoding="UTF-8" standalone="no"?>
<!DOCTYPE svg PUBLIC "-//W3C//DTD SVG 1.1//EN" "http://www.w3.org/Graphics/SVG/1.1/DTD/svg11.dtd">
<svg width="100%" height="100%" viewBox="0 0 24 24" version="1.1" xmlns="http://www.w3.org/2000/svg" xmlns:xlink="http://www.w3.org/1999/xlink" xml:space="preserve" xmlns:serif="http://www.serif.com/" style="fill-rule:evenodd;clip-rule:evenodd;">
    <g transform="matrix(1.04167,0,0,1.04167,-0.00388146,0)">
        <g>
            <g>
                <path d="M0,7.274L7.274,0L7.274,3.637L3.637,7.274L7.274,10.911L7.274,14.548L0,7.274Z" style="fill:rgb(148,51,86);fill-rule:nonzero;"/>
                <path d="M4.676,7.274L7.274,4.676L7.274,9.872L4.676,7.274Z" style="fill:rgb(148,51,86);fill-rule:nonzero;"/>
                <path d="M15.328,7.274L7.794,0L7.794,3.637L11.431,7.274L7.794,10.911L7.794,14.548L15.328,7.274Z" style="fill:rgb(72,83,100);fill-rule:nonzero;"/>
            </g>
            <g transform="matrix(1,0,0,1,-2.13371e-16,0.0858061)">
                <path d="M-20.603,23.04C-19.673,23.037 -18.744,23.032 -17.814,23.016C-16.925,23.001 -16.034,22.976 -15.151,22.903C-14.216,22.825 -13.298,22.696 -12.417,22.462C-11.54,22.228 -10.765,21.874 -10.049,21.459C-9.353,21.057 -8.744,20.562 -8.208,20.058C-7.656,19.541 -7.145,19.003 -6.67,18.45C-6.182,17.88 -5.713,17.303 -5.249,16.723C-4.794,16.155 -4.338,15.588 -3.865,15.027C-3.403,14.478 -2.903,13.934 -2.318,13.443C-2.014,13.189 -1.68,12.962 -1.306,12.757C-0.943,12.558 -0.503,12.446 -0.044,12.422C0.422,12.398 0.865,12.555 1.241,12.726C1.625,12.9 1.946,13.144 2.243,13.383C2.855,13.874 3.348,14.433 3.83,14.987C4.298,15.523 4.73,16.074 5.168,16.622C5.63,17.198 6.091,17.775 6.578,18.342C7.05,18.892 7.545,19.435 8.094,19.951C8.657,20.48 9.273,20.977 9.981,21.418C10.678,21.85 11.473,22.187 12.335,22.439C13.164,22.681 14.074,22.813 14.966,22.887C15.883,22.964 16.803,22.996 17.726,23.014C18.638,23.033 19.551,23.037 20.464,23.04L20.603,23.04" style="fill:rgb(72,83,100);fill-rule:nonzero;"/>
            </g>
            <g>
                <path id="polyline5583" d="M0,23.04C1.605,23.038 3.21,23.04 4.815,23.03C5.781,23.019 6.757,23.009 7.705,22.855C8.468,22.725 9.196,22.462 9.769,22.067C10.505,21.573 11.051,20.95 11.53,20.314C12.988,18.324 13.925,16.159 15.309,14.144C15.768,13.478 16.281,12.823 16.961,12.265C17.452,11.861 18.053,11.52 18.744,11.325C19.53,11.101 20.379,11.039 21.215,11.012C22.689,10.968 24.164,10.991 25.639,10.98L27.153,10.98" style="fill:none;fill-rule:nonzero;stroke:rgb(148,51,86);stroke-width:0.45px;"/>
                <path id="polyline55831" serif:id="polyline5583" d="M0,23.04C1.852,23.038 3.704,23.04 5.556,23.03C6.671,23.019 7.797,23.009 8.891,22.855C9.771,22.725 10.611,22.462 11.272,22.067C12.122,21.573 12.752,20.95 13.304,20.314C14.986,18.324 16.067,16.159 17.664,14.144C18.194,13.478 18.785,12.823 19.57,12.265C20.137,11.861 20.83,11.52 21.628,11.325C22.535,11.101 23.514,11.039 24.478,11.012C26.179,10.968 27.882,10.991 29.583,10.98L31.33,10.98" style="fill:none;fill-rule:nonzero;stroke:rgb(148,51,86);stroke-width:0.45px;"/>
                <path id="polyline55832" serif:id="polyline5583" d="M0,23.04C2.121,23.038 4.243,23.04 6.364,23.03C7.641,23.019 8.931,23.009 10.184,22.855C11.193,22.725 12.154,22.462 12.912,22.067C13.885,21.573 14.606,20.95 15.239,20.314C17.166,18.324 18.404,16.159 20.234,14.144C20.84,13.478 21.518,12.823 22.417,12.265C23.066,11.861 23.86,11.52 24.774,11.325C25.812,11.101 26.934,11.039 28.039,11.012C29.987,10.968 31.937,10.991 33.886,10.98L35.887,10.98" style="fill:none;fill-rule:nonzero;stroke:rgb(148,51,86);stroke-width:0.45px;"/>
                <path id="polyline55833" serif:id="polyline5583" d="M0,23.04C2.413,23.038 4.826,23.04 7.239,23.03C8.692,23.019 10.16,23.009 11.585,22.855C12.732,22.725 13.826,22.462 14.688,22.067C15.795,21.573 16.616,20.95 17.336,20.314C19.528,18.324 20.936,16.159 23.017,14.144C23.707,13.478 24.478,12.823 25.5,12.265C26.24,11.861 27.142,11.52 28.182,11.325C29.363,11.101 30.64,11.039 31.896,11.012C34.112,10.968 36.331,10.991 38.548,10.98L40.824,10.98" style="fill:none;fill-rule:nonzero;stroke:rgb(148,51,86);stroke-width:0.45px;"/>
                <path id="polyline55834" serif:id="polyline5583" d="M0,23.04C2.772,23.038 5.545,23.04 8.317,23.03C9.986,23.019 11.672,23.009 13.309,22.855C14.627,22.725 15.884,22.462 16.874,22.067C18.146,21.573 19.089,20.95 19.916,20.314C22.434,18.324 24.052,16.159 26.443,14.144C27.236,13.478 28.121,12.823 29.296,12.265C30.145,11.861 31.182,11.52 32.377,11.325C33.734,11.101 35.2,11.039 36.643,11.012C39.189,10.968 41.738,10.991 44.285,10.98L46.9,10.98" style="fill:none;fill-rule:nonzero;stroke:rgb(148,51,86);stroke-width:0.45px;"/>
                <path id="polyline55835" serif:id="polyline5583" d="M0,23.04C3.165,23.038 6.33,23.04 9.495,23.03C11.401,23.019 13.326,23.009 15.195,22.855C16.7,22.725 18.134,22.462 19.265,22.067C20.717,21.573 21.794,20.95 22.738,20.314C25.613,18.324 27.46,16.159 30.19,14.144C31.095,13.478 32.106,12.823 33.447,12.265C34.417,11.861 35.6,11.52 36.964,11.325C38.514,11.101 40.188,11.039 41.836,11.012C44.743,10.968 47.652,10.991 50.56,10.98L53.546,10.98" style="fill:none;fill-rule:nonzero;stroke:rgb(148,51,86);stroke-width:0.45px;"/>
                <path id="polyline55836" serif:id="polyline5583" d="M0,23.04C3.681,23.038 7.363,23.04 11.044,23.03C13.261,23.019 15.499,23.009 17.674,22.855C19.424,22.725 21.092,22.462 22.408,22.067C24.096,21.573 25.349,20.95 26.447,20.314C29.791,18.324 31.94,16.159 35.115,14.144C36.167,13.478 37.343,12.823 38.903,12.265C40.031,11.861 41.407,11.52 42.994,11.325C44.796,11.101 46.743,11.039 48.66,11.012C52.041,10.968 55.425,10.991 58.808,10.98L62.28,10.98" style="fill:none;fill-rule:nonzero;stroke:rgb(148,51,86);stroke-width:0.45px;"/>
                <path id="polyline55837" serif:id="polyline5583" d="M0,23.04C1.605,23.038 3.21,23.04 4.815,23.03C5.781,23.019 6.757,23.009 7.705,22.855C8.468,22.725 9.196,22.462 9.769,22.067C10.505,21.573 11.051,20.95 11.53,20.314C12.988,18.324 13.925,16.159 15.309,14.144C15.768,13.478 16.281,12.823 16.961,12.265C17.452,11.861 18.053,11.52 18.744,11.325C19.53,11.101 20.379,11.039 21.215,11.012C22.689,10.968 24.164,10.991 25.639,10.98L27.153,10.98" style="fill:none;fill-rule:nonzero;stroke:rgb(148,51,86);stroke-width:0.45px;"/>
            </g>
        </g>
    </g>
</svg>
