<?xml version="1.0" encoding="UTF-8" standalone="no"?><!DOCTYPE svg PUBLIC "-//W3C//DTD SVG 1.1//EN" "http://www.w3.org/Graphics/SVG/1.1/DTD/svg11.dtd"><svg width="100%" height="100%" viewBox="0 0 24 24" version="1.1" xmlns="http://www.w3.org/2000/svg" xmlns:xlink="http://www.w3.org/1999/xlink" xml:space="preserve" xmlns:serif="http://www.serif.com/" style="fill-rule:evenodd;clip-rule:evenodd;"><rect x="0" y="0" width="23.04" height="23.04" style="fill:#fff;"/><clipPath id="_clip1"><rect x="0" y="0" width="23.04" height="23.04"/></clipPath><g clip-path="url(#_clip1)"><g><g><path d="M0,7.274l7.274,-7.274l0,3.637l-3.637,3.637l3.637,3.637l0,3.637l-7.274,-7.274Z" style="fill:#943356;fill-rule:nonzero;"/><path d="M4.676,7.274l2.598,-2.598l0,5.196l-2.598,-2.598Z" style="fill:#943356;fill-rule:nonzero;"/><path d="M15.328,7.274l-7.534,-7.274l0,3.637l3.637,3.637l-3.637,3.637l0,3.637l7.534,-7.274Z" style="fill:#485364;fill-rule:nonzero;"/></g><path d="M-20.603,23.04c0.93,-0.003 1.859,-0.008 2.789,-0.024c0.889,-0.015 1.78,-0.04 2.663,-0.113c0.935,-0.078 1.853,-0.207 2.734,-0.441c0.877,-0.234 1.652,-0.588 2.368,-1.003c0.696,-0.402 1.305,-0.897 1.841,-1.401c0.552,-0.517 1.063,-1.055 1.538,-1.608c0.488,-0.57 0.957,-1.147 1.421,-1.727c0.455,-0.568 0.911,-1.135 1.384,-1.696c0.462,-0.549 0.962,-1.093 1.547,-1.584c0.304,-0.254 0.638,-0.481 1.012,-0.686c0.363,-0.199 0.803,-0.311 1.262,-0.335c0.466,-0.024 0.909,0.133 1.285,0.304c0.384,0.174 0.705,0.418 1.002,0.657c0.612,0.491 1.105,1.05 1.587,1.604c0.468,0.536 0.9,1.087 1.338,1.635c0.462,0.576 0.923,1.153 1.41,1.72c0.472,0.55 0.967,1.093 1.516,1.609c0.563,0.529 1.179,1.026 1.887,1.467c0.697,0.432 1.492,0.769 2.354,1.021c0.829,0.242 1.739,0.374 2.631,0.448c0.917,0.077 1.837,0.109 2.76,0.127c0.912,0.019 1.825,0.023 2.738,0.026c0.047,0 0.093,0 0.139,0" style="fill:url(#_Linear2);fill-rule:nonzero;"/><g><path id="polyline5583" d="M0,23.04c1.605,-0.002 3.21,0 4.815,-0.01c0.966,-0.011 1.942,-0.021 2.89,-0.175c0.763,-0.13 1.491,-0.393 2.064,-0.788c0.736,-0.494 1.282,-1.117 1.761,-1.753c1.458,-1.99 2.395,-4.155 3.779,-6.17c0.459,-0.666 0.972,-1.321 1.652,-1.879c0.491,-0.404 1.092,-0.745 1.783,-0.94c0.786,-0.224 1.635,-0.286 2.471,-0.313c1.474,-0.044 2.949,-0.021 4.424,-0.032c0.504,0 1.009,0 1.514,0" style="fill:none;fill-rule:nonzero;stroke:url(#_Linear3);stroke-width:0.45px;"/><path id="polyline55831" serif:id="polyline5583" d="M0,23.04c1.852,-0.002 3.704,0 5.556,-0.01c1.115,-0.011 2.241,-0.021 3.335,-0.175c0.88,-0.13 1.72,-0.393 2.381,-0.788c0.85,-0.494 1.48,-1.117 2.032,-1.753c1.682,-1.99 2.763,-4.155 4.36,-6.17c0.53,-0.666 1.121,-1.321 1.906,-1.879c0.567,-0.404 1.26,-0.745 2.058,-0.94c0.907,-0.224 1.886,-0.286 2.85,-0.313c1.701,-0.044 3.404,-0.021 5.105,-0.032c0.582,0 1.165,0 1.747,0" style="fill:none;fill-rule:nonzero;stroke:url(#_Linear4);stroke-width:0.45px;"/><path id="polyline55832" serif:id="polyline5583" d="M0,23.04c2.121,-0.002 4.243,0 6.364,-0.01c1.277,-0.011 2.567,-0.021 3.82,-0.175c1.009,-0.13 1.97,-0.393 2.728,-0.788c0.973,-0.494 1.694,-1.117 2.327,-1.753c1.927,-1.99 3.165,-4.155 4.995,-6.17c0.606,-0.666 1.284,-1.321 2.183,-1.879c0.649,-0.404 1.443,-0.745 2.357,-0.94c1.038,-0.224 2.16,-0.286 3.265,-0.313c1.948,-0.044 3.898,-0.021 5.847,-0.032c0.667,0 1.334,0 2.001,0" style="fill:none;fill-rule:nonzero;stroke:url(#_Linear5);stroke-width:0.45px;"/><path id="polyline55833" serif:id="polyline5583" d="M0,23.04c2.413,-0.002 4.826,0 7.239,-0.01c1.453,-0.011 2.921,-0.021 4.346,-0.175c1.147,-0.13 2.241,-0.393 3.103,-0.788c1.107,-0.494 1.928,-1.117 2.648,-1.753c2.192,-1.99 3.6,-4.155 5.681,-6.17c0.69,-0.666 1.461,-1.321 2.483,-1.879c0.74,-0.404 1.642,-0.745 2.682,-0.94c1.181,-0.224 2.458,-0.286 3.714,-0.313c2.216,-0.044 4.435,-0.021 6.652,-0.032c0.759,0 1.517,0 2.276,0" style="fill:none;fill-rule:nonzero;stroke:url(#_Linear6);stroke-width:0.45px;"/><path id="polyline55834" serif:id="polyline5583" d="M0,23.04c2.772,-0.002 5.545,0 8.317,-0.01c1.669,-0.011 3.355,-0.021 4.992,-0.175c1.318,-0.13 2.575,-0.393 3.565,-0.788c1.272,-0.494 2.215,-1.117 3.042,-1.753c2.518,-1.99 4.136,-4.155 6.527,-6.17c0.793,-0.666 1.678,-1.321 2.853,-1.879c0.849,-0.404 1.886,-0.745 3.081,-0.94c1.357,-0.224 2.823,-0.286 4.266,-0.313c2.546,-0.044 5.095,-0.021 7.642,-0.032c0.872,0 1.743,0 2.615,0" style="fill:none;fill-rule:nonzero;stroke:url(#_Linear7);stroke-width:0.45px;"/><path id="polyline55835" serif:id="polyline5583" d="M0,23.04c3.165,-0.002 6.33,0 9.495,-0.01c1.906,-0.011 3.831,-0.021 5.7,-0.175c1.505,-0.13 2.939,-0.393 4.07,-0.788c1.452,-0.494 2.529,-1.117 3.473,-1.753c2.875,-1.99 4.722,-4.155 7.452,-6.17c0.905,-0.666 1.916,-1.321 3.257,-1.879c0.97,-0.404 2.153,-0.745 3.517,-0.94c1.55,-0.224 3.224,-0.286 4.872,-0.313c2.907,-0.044 5.816,-0.021 8.724,-0.032c0.996,0 1.991,0 2.986,0" style="fill:none;fill-rule:nonzero;stroke:url(#_Linear8);stroke-width:0.45px;"/><path id="polyline55836" serif:id="polyline5583" d="M0,23.04c3.681,-0.002 7.363,0 11.044,-0.01c2.217,-0.011 4.455,-0.021 6.63,-0.175c1.75,-0.13 3.418,-0.393 4.734,-0.788c1.688,-0.494 2.941,-1.117 4.039,-1.753c3.344,-1.99 5.493,-4.155 8.668,-6.17c1.052,-0.666 2.228,-1.321 3.788,-1.879c1.128,-0.404 2.504,-0.745 4.091,-0.94c1.802,-0.224 3.749,-0.286 5.666,-0.313c3.381,-0.044 6.765,-0.021 10.148,-0.032c1.157,0 2.315,0 3.472,0" style="fill:none;fill-rule:nonzero;stroke:url(#_Linear9);stroke-width:0.45px;"/><path id="polyline55837" serif:id="polyline5583" d="M0,23.04c1.605,-0.002 3.21,0 4.815,-0.01c0.966,-0.011 1.942,-0.021 2.89,-0.175c0.763,-0.13 1.491,-0.393 2.064,-0.788c0.736,-0.494 1.282,-1.117 1.761,-1.753c1.458,-1.99 2.395,-4.155 3.779,-6.17c0.459,-0.666 0.972,-1.321 1.652,-1.879c0.491,-0.404 1.092,-0.745 1.783,-0.94c0.786,-0.224 1.635,-0.286 2.471,-0.313c1.474,-0.044 2.949,-0.021 4.424,-0.032c0.504,0 1.009,0 1.514,0" style="fill:none;fill-rule:nonzero;stroke:url(#_Linear10);stroke-width:0.45px;"/></g></g></g><defs><linearGradient id="_Linear2" x1="0" y1="0" x2="1" y2="0" gradientUnits="userSpaceOnUse" gradientTransform="matrix(29.16,-14.76,14.76,29.16,-10.62,30.06)"><stop offset="0" style="stop-color:#943356;stop-opacity:1"/><stop offset="0.15" style="stop-color:#70425d;stop-opacity:1"/><stop offset="0.33" style="stop-color:#524f62;stop-opacity:1"/><stop offset="1" style="stop-color:#485364;stop-opacity:1"/></linearGradient><linearGradient id="_Linear3" x1="0" y1="0" x2="1" y2="0" gradientUnits="userSpaceOnUse" gradientTransform="matrix(11.0299,9.54,-9.54,11.0299,12.42,13.5)"><stop offset="0" style="stop-color:#943356;stop-opacity:1"/><stop offset="1" style="stop-color:#485364;stop-opacity:1"/></linearGradient><linearGradient id="_Linear4" x1="0" y1="0" x2="1" y2="0" gradientUnits="userSpaceOnUse" gradientTransform="matrix(11.0299,9.54,-9.54,11.0299,12.42,13.5)"><stop offset="0" style="stop-color:#943356;stop-opacity:1"/><stop offset="1" style="stop-color:#485364;stop-opacity:1"/></linearGradient><linearGradient id="_Linear5" x1="0" y1="0" x2="1" y2="0" gradientUnits="userSpaceOnUse" gradientTransform="matrix(11.0299,9.54,-9.54,11.0299,12.42,13.5)"><stop offset="0" style="stop-color:#943356;stop-opacity:1"/><stop offset="1" style="stop-color:#485364;stop-opacity:1"/></linearGradient><linearGradient id="_Linear6" x1="0" y1="0" x2="1" y2="0" gradientUnits="userSpaceOnUse" gradientTransform="matrix(11.0299,9.54,-9.54,11.0299,12.42,13.5)"><stop offset="0" style="stop-color:#943356;stop-opacity:1"/><stop offset="1" style="stop-color:#485364;stop-opacity:1"/></linearGradient><linearGradient id="_Linear7" x1="0" y1="0" x2="1" y2="0" gradientUnits="userSpaceOnUse" gradientTransform="matrix(11.0299,9.54,-9.54,11.0299,12.42,13.5)"><stop offset="0" style="stop-color:#943356;stop-opacity:1"/><stop offset="1" style="stop-color:#485364;stop-opacity:1"/></linearGradient><linearGradient id="_Linear8" x1="0" y1="0" x2="1" y2="0" gradientUnits="userSpaceOnUse" gradientTransform="matrix(11.0299,9.54,-9.54,11.0299,12.42,13.5)"><stop offset="0" style="stop-color:#943356;stop-opacity:1"/><stop offset="1" style="stop-color:#485364;stop-opacity:1"/></linearGradient><linearGradient id="_Linear9" x1="0" y1="0" x2="1" y2="0" gradientUnits="userSpaceOnUse" gradientTransform="matrix(11.0299,9.54,-9.54,11.0299,12.42,13.5)"><stop offset="0" style="stop-color:#943356;stop-opacity:1"/><stop offset="1" style="stop-color:#485364;stop-opacity:1"/></linearGradient><linearGradient id="_Linear10" x1="0" y1="0" x2="1" y2="0" gradientUnits="userSpaceOnUse" gradientTransform="matrix(11.0299,9.54,-9.54,11.0299,12.42,13.5)"><stop offset="0" style="stop-color:#943356;stop-opacity:1"/><stop offset="1" style="stop-color:#485364;stop-opacity:1"/></linearGradient></defs></svg>